<?xml version="1.0" standalone="no"?>
<!DOCTYPE svg PUBLIC "-//W3C//DTD SVG 20010904//EN"
 "http://www.w3.org/TR/2001/REC-SVG-20010904/DTD/svg10.dtd">
<svg version="1.0" xmlns="http://www.w3.org/2000/svg"
 width="300.000000pt" height="300.000000pt" viewBox="0 0 300.000000 300.000000"
 preserveAspectRatio="xMidYMid meet">
<metadata>
Created by potrace 1.10, written by Peter Selinger 2001-2011
</metadata>
<g transform="translate(0.000000,300.000000) scale(0.100000,-0.100000)"
fill="#000000" stroke="none">
<path d="M2085 2600 c-12 -4 -27 -15 -34 -24 -7 -9 -19 -16 -26 -16 -6 0 -20
-9 -29 -19 -18 -19 -18 -19 -49 0 -18 10 -39 19 -47 19 -25 0 -300 -277 -300
-302 0 -12 9 -32 20 -43 l21 -22 -273 -267 -273 -267 -50 -149 c-33 -100 -46
-153 -39 -160 7 -7 35 0 85 19 42 16 113 37 158 47 l81 17 455 455 c250 250
454 460 453 466 -2 6 10 23 25 39 38 37 31 56 -51 139 -70 69 -94 82 -127 68z
m119 -125 c29 -38 31 -46 14 -63 -10 -10 -26 1 -75 50 -58 58 -61 63 -47 80
16 16 18 16 50 -8 18 -14 44 -40 58 -59z m-109 -44 c39 -39 70 -75 70 -82 0
-6 -12 -21 -28 -33 l-27 -20 -75 74 -74 73 27 27 c15 15 29 28 32 29 3 0 37
-30 75 -68z m-193 48 c2 -7 -45 -59 -105 -118 -97 -95 -137 -126 -137 -106 0
9 223 234 232 235 3 0 8 -5 10 -11z m104 -155 c63 -63 73 -78 63 -91 -11 -12
-25 -2 -92 65 -71 72 -88 102 -56 102 6 0 44 -34 85 -76z m-66 -59 l75 -75
-113 -113 -112 -112 -77 77 -76 76 108 111 c60 61 111 111 114 111 4 0 40 -34
81 -75z m-261 -259 c55 -55 72 -79 67 -92 -7 -19 -11 -16 -123 90 -40 38 -50
53 -41 63 6 7 13 13 17 13 4 0 40 -33 80 -74z m-66 -57 c37 -39 67 -75 67 -81
0 -7 -66 -78 -146 -159 l-146 -147 -79 76 -79 76 152 153 c84 84 155 153 158
153 3 0 36 -32 73 -71z m-283 -422 c-1 -32 -32 -50 -120 -68 -50 -10 -100 -24
-111 -30 -11 -6 -22 -9 -24 -7 -3 2 11 51 30 108 25 79 41 110 62 128 l28 23
68 -72 c37 -39 67 -76 67 -82z"/>
<path d="M1167 1564 c-12 -12 -8 -51 8 -64 8 -6 23 -9 35 -5 17 5 20 13 18 38
-2 26 -8 33 -28 35 -14 2 -29 0 -33 -4z"/>
<path d="M739 2534 c-103 -31 -189 -114 -228 -219 -21 -55 -21 -71 -21 -754 0
-670 1 -702 20 -763 40 -130 161 -233 301 -257 103 -17 1295 -13 1376 5 173
38 281 145 313 309 8 43 10 256 8 735 -3 674 -3 675 -26 731 -12 30 -39 75
-59 98 -35 41 -110 97 -119 88 -3 -2 0 -16 6 -31 5 -15 10 -38 10 -51 0 -30
-68 -119 -169 -222 -45 -46 -81 -85 -81 -88 0 -4 39 -6 88 -5 48 1 122 1 165
1 l78 -1 -3 -622 -3 -623 -25 -48 c-33 -65 -95 -120 -164 -146 -58 -21 -63
-22 -730 -19 l-671 3 -51 27 c-59 31 -108 84 -138 147 -21 45 -21 60 -24 664
l-3 617 454 0 453 0 38 39 c37 37 38 41 27 74 -15 43 4 97 42 122 13 8 64 58
111 110 l88 95 -509 -1 c-410 0 -517 -3 -554 -15z m46 -169 c27 -26 31 -46 14
-76 -24 -46 -100 -40 -117 9 -25 71 51 120 103 67z m200 0 c28 -27 30 -37 14
-68 -16 -30 -28 -37 -66 -37 -34 0 -63 29 -63 63 0 24 44 67 70 67 12 0 32
-11 45 -25z m199 4 c33 -26 34 -62 1 -94 -29 -30 -45 -31 -79 -4 -32 25 -35
70 -6 99 26 26 51 25 84 -1z m194 -5 c26 -18 28 -50 5 -76 -18 -20 -63 -24
-81 -6 -28 28 -1 98 37 98 9 0 27 -7 39 -16z"/>
<path d="M815 2011 c-83 -38 -124 -114 -105 -195 32 -141 219 -185 305 -72 29
38 43 111 31 160 -14 58 -104 126 -166 126 -14 0 -43 -9 -65 -19z m107 -118
c10 -9 18 -27 18 -40 0 -28 -33 -63 -60 -63 -26 0 -60 34 -60 62 0 50 63 76
102 41z"/>
<path d="M1888 1691 c-74 -29 -124 -75 -158 -145 -82 -166 -30 -347 122 -425
54 -27 78 -34 131 -34 193 -2 341 201 282 387 -10 31 -21 59 -25 61 -4 3 -31
-5 -59 -18 -43 -18 -50 -25 -45 -42 32 -97 0 -194 -76 -232 -113 -58 -227 5
-238 131 -6 73 2 99 44 146 42 46 89 64 144 55 35 -6 43 -3 60 17 25 30 21 98
-6 109 -35 14 -129 8 -176 -10z"/>
<path d="M2146 1679 c-30 -23 -33 -45 -10 -77 17 -24 62 -30 82 -10 21 21 15
75 -10 92 -29 20 -30 20 -62 -5z"/>
<path d="M863 1583 c-8 -3 -13 -25 -13 -58 0 -45 3 -55 20 -60 32 -10 40 3 40
60 0 39 -4 54 -16 59 -9 3 -16 6 -17 5 -1 0 -8 -3 -14 -6z"/>
<path d="M1926 1469 c-55 -44 -15 -159 56 -159 41 0 98 57 98 97 -1 71 -94
109 -154 62z"/>
<path d="M863 1403 c-18 -7 -17 -97 1 -112 35 -29 64 19 49 80 -9 33 -25 43
-50 32z"/>
<path d="M1383 1379 c-29 -11 -46 -42 -31 -57 17 -17 43 -15 61 6 33 36 14 68
-30 51z"/>
<path d="M1515 1379 c-4 -5 -4 -21 -1 -35 6 -22 11 -25 48 -22 44 3 66 24 55
52 -7 19 -91 23 -102 5z"/>
<path d="M861 1216 c-7 -8 -11 -32 -9 -53 3 -33 6 -38 28 -38 22 0 25 5 28 38
3 36 -10 67 -28 67 -4 0 -13 -6 -19 -14z"/>
<path d="M863 1044 c-7 -19 93 -124 119 -124 9 0 22 9 28 20 12 22 13 20 -73
84 -53 40 -65 43 -74 20z"/>
<path d="M1722 984 c-43 -30 -16 -94 41 -94 26 0 57 31 57 57 0 19 -37 53 -58
53 -10 0 -28 -7 -40 -16z"/>
<path d="M1930 981 c-14 -4 -26 -15 -28 -24 -6 -30 17 -47 64 -47 39 0 44 3
50 26 4 14 3 29 -2 34 -14 13 -57 19 -84 11z"/>
<path d="M1100 965 c-6 -8 -10 -22 -8 -32 3 -15 13 -18 57 -18 61 0 86 20 62
49 -17 21 -94 21 -111 1z"/>
<path d="M1301 961 c-20 -36 -4 -51 55 -51 41 0 56 4 61 16 11 29 -11 49 -60
52 -37 2 -48 -1 -56 -17z"/>
<path d="M1504 966 c-15 -38 0 -51 56 -51 45 0 55 3 58 18 6 30 -17 47 -65 47
-29 0 -45 -5 -49 -14z"/>
</g>
</svg>
